<mxfile host="65bd71144e">
    <diagram id="bDbGLt5RZxU2JXObSTe8" name="第 1 页">
        <mxGraphModel dx="790" dy="766" grid="1" gridSize="10" guides="1" tooltips="1" connect="1" arrows="1" fold="1" page="1" pageScale="1" pageWidth="1169" pageHeight="827" background="none" math="0" shadow="0">
            <root>
                <mxCell id="0"/>
                <object label="sdfsd" gg="color: #FFFFFF" id="1">
                    <mxCell parent="0"/>
                </object>
                <mxCell id="283" value="sdfsdfsdf" style="text;strokeColor=none;align=center;fillColor=none;html=1;verticalAlign=middle;whiteSpace=wrap;rounded=0;" vertex="1" parent="1">
                    <mxGeometry x="370" y="380" width="60" height="30" as="geometry"/>
                </mxCell>
            </root>
        </mxGraphModel>
    </diagram>
</mxfile>